<svg width="420" height="420" viewBox="0 0 420 420" fill="none" xmlns="http://www.w3.org/2000/svg">
<mask id="mask0_204_2" style="mask-type:alpha" maskUnits="userSpaceOnUse" x="0" y="0" width="420" height="420">
<rect width="420" height="420" rx="100" fill="#010102"/>
</mask>
<g mask="url(#mask0_204_2)">
<rect width="420" height="420" fill="#010102"/>
<rect width="420" height="195" fill="#FF1324"/>
<rect y="225" width="420" height="195" fill="#4EB9FF"/>
<ellipse cx="210" cy="210" rx="166" ry="165" fill="#010102"/>
</g>
<path d="M196.14 267.96L204.92 247.86C212.602 230.096 226.659 215.854 244.32 207.94L268.48 197.22C276.16 193.81 276.16 182.64 268.48 179.22L245.08 168.84C226.963 160.719 212.656 145.953 205.11 127.59L196.21 106.17C195.51 104.41 194.298 102.901 192.731 101.838C191.164 100.775 189.314 100.207 187.42 100.207C185.526 100.207 183.676 100.775 182.109 101.838C180.542 102.901 179.33 104.41 178.63 106.17L169.74 127.59C162.194 145.953 147.887 160.719 129.77 168.84L106.37 179.23C98.69 182.63 98.69 193.81 106.37 197.22L130.52 207.94C148.179 215.852 162.236 230.09 169.92 247.85L178.7 267.95C179.422 269.666 180.635 271.132 182.186 272.162C183.737 273.192 185.558 273.742 187.42 273.742C189.282 273.742 191.103 273.192 192.654 272.162C194.205 271.132 195.418 269.676 196.14 267.96ZM284.01 316.89L286.48 311.23C290.812 301.218 298.735 293.191 308.69 288.73L316.29 285.34C317.211 284.916 317.991 284.237 318.538 283.384C319.084 282.531 319.375 281.538 319.375 280.525C319.375 279.511 319.084 278.519 318.538 277.665C317.991 276.812 317.211 276.133 316.29 275.71L309.12 272.52C298.907 267.939 290.842 259.613 286.59 249.26L284.05 243.15C283.675 242.207 283.025 241.399 282.185 240.83C281.346 240.26 280.354 239.956 279.34 239.956C278.325 239.956 277.334 240.26 276.495 240.83C275.655 241.399 275.005 242.207 274.63 243.15L272.09 249.25C267.84 259.607 259.775 267.937 249.56 272.52L242.38 275.72C241.462 276.145 240.685 276.823 240.14 277.676C239.595 278.528 239.306 279.518 239.306 280.53C239.306 281.541 239.595 282.532 240.14 283.384C240.685 284.236 241.462 284.915 242.38 285.34L249.98 288.72C259.94 293.181 267.868 301.212 272.2 311.23L274.67 316.89C276.47 321.03 282.21 321.03 284.01 316.89Z" fill="white"/>
</svg>
